<?xml version="1.0" standalone="no"?>
<!DOCTYPE svg PUBLIC "-//W3C//DTD SVG 20010904//EN"
 "http://www.w3.org/TR/2001/REC-SVG-20010904/DTD/svg10.dtd">
<svg version="1.0" xmlns="http://www.w3.org/2000/svg"
 width="415.000000pt" height="92.000000pt" viewBox="0 0 415.000000 92.000000"
 preserveAspectRatio="xMidYMid meet">

<g transform="translate(0.000000,92.000000) scale(0.100000,-0.100000)"
fill="#000000" stroke="none">
<path d="M3731 883 c-60 -21 -146 -106 -160 -158 -15 -55 -14 -89 5 -133 33
-80 93 -120 264 -172 58 -18 121 -41 142 -51 102 -52 115 -167 27 -242 -62
-54 -160 -72 -252 -46 -49 13 -115 73 -125 113 -7 28 -12 31 -51 34 l-43 3 7
-33 c20 -92 94 -165 190 -188 70 -17 220 -9 262 13 186 98 199 323 24 411 -25
13 -93 39 -151 56 -169 52 -212 82 -226 157 -7 39 15 100 50 132 47 45 149 62
229 40 49 -13 115 -73 125 -113 7 -27 13 -31 45 -34 34 -3 37 -1 37 23 0 67
-83 161 -168 189 -58 20 -173 19 -231 -1z"/>
<path d="M0 450 l0 -440 450 0 450 0 2 369 3 368 260 -368 260 -369 38 0 37 0
0 440 0 440 -40 0 -40 0 -2 -367 -3 -368 -260 368 -260 367 -447 0 -448 0 0
-440z m820 0 l0 -380 -380 0 -380 0 0 380 0 380 380 0 380 0 0 -380z"/>
<path d="M100 450 l0 -330 330 0 330 0 0 330 0 330 -330 0 -330 0 0 -330z
m630 0 l0 -300 -300 0 -300 0 0 300 0 300 300 0 300 0 0 -300z"/>
<path d="M1730 450 l0 -440 265 0 265 0 0 35 0 35 -220 0 -220 0 0 165 0 165
163 1 c89 1 179 1 200 1 37 -1 37 -1 37 38 l0 40 -200 0 -200 0 0 165 0 165
215 0 215 0 0 35 0 35 -260 0 -260 0 0 -440z"/>
<path d="M2370 883 c1 -5 54 -201 119 -438 l117 -430 44 0 44 0 101 367 c55
203 102 368 105 368 3 0 50 -165 105 -368 l101 -367 44 0 44 0 117 425 c65
234 118 431 119 438 0 7 -14 12 -40 12 -22 0 -40 -2 -40 -5 0 -8 -190 -727
-197 -745 -5 -14 -30 79 -165 593 l-41 157 -46 0 -46 0 -100 -379 c-55 -209
-103 -377 -106 -373 -5 5 -103 370 -192 715 -9 35 -12 37 -48 37 -22 0 -39 -3
-39 -7z"/>
</g>
</svg>
